<?xml version="1.0" encoding="UTF-8" standalone="no"?><!DOCTYPE svg PUBLIC "-//W3C//DTD SVG 1.1//EN" "http://www.w3.org/Graphics/SVG/1.1/DTD/svg11.dtd"><svg width="100%" height="100%" viewBox="0 0 191 140" version="1.1" xmlns="http://www.w3.org/2000/svg" xmlns:xlink="http://www.w3.org/1999/xlink" xml:space="preserve" style="fill-rule:evenodd;clip-rule:evenodd;stroke-linecap:round;stroke-linejoin:round;stroke-miterlimit:1.5;"><path d="M42,41l-10,6l1,10l-4,9l7,12l11,1l4,-5l7,-23l-16,-10Z" style="fill:none;stroke:#000;stroke-width:0.75px;"/><path d="M65,88l21,11l23,-20l0,-30l-49,7l5,32Z" style="fill:none;stroke:#000;stroke-width:0.75px;"/><path d="M81,88l11,0l0,3l-5,4l-6,-2l0,-5Z" style="fill:none;stroke:#000;stroke-width:0.75px;"/><ellipse cx="73" cy="76.25" rx="3" ry="5.75"/><path d="M83,104l-7,0l-10,12l0,4l3,2l10,0l4,-18Z" style="fill:none;stroke:#000;stroke-width:0.75px;"/><path d="M93,97l5,-5l7,6l-9.5,6l-2.5,-7Z" style="fill:none;stroke:#000;stroke-width:0.75px;"/><path d="M105,120l7,15l28,-17l-5,-5l-18,10l-5,-7l-7,4Z" style="fill:none;stroke:#000;stroke-width:0.75px;"/><path d="M101,116l3,4l9,-5l4,-6.5l-11,-11.5l-10.5,6l5.5,13Z" style="fill:none;stroke:#000;stroke-width:0.75px;"/><path d="M125,101l0,-9l8.25,6l0,-8l9.75,8l0,6l-18,-3Z" style="fill:none;stroke:#000;stroke-width:0.75px;"/><path d="M9,69l7,-6l-8,-9l43,16l-22,-4l-20,3Z" style="fill:none;stroke:#000;stroke-width:0.75px;"/><path d="M83,104l6,0l-1,4.5l2.5,5.5l1.5,-5.5l-2,-4.5l4,-4l-11,4Z" style="fill:none;stroke:#000;stroke-width:0.75px;"/><path d="M54,78l-11,9l-15,1l-18,5l16,-9l13,-5l15,-1" style="fill:none;stroke:#000;stroke-width:0.75px;"/><ellipse cx="101" cy="73.25" rx="3" ry="5.75"/><path d="M127,117l-4.5,-7l1.5,-8l7,-4l9,3l4,4l-1,7l-6,2l-10,3Z" style="fill:none;stroke:#000;stroke-width:0.75px;"/><path d="M82,98l1,6l-4,18l22,-6l-9,-21l-10,3Z" style="fill:none;stroke:#000;stroke-width:0.75px;"/><path d="M104,41l-8.5,-8l1.5,-7l9,-4l4,-7l7,6l2,6l-15,14Z" style="fill:none;stroke:#000;stroke-width:0.75px;"/><path d="M126,21l7,4l1,9l5,0l1,7l-13,13l-7,-1l-16,-12l22,-20Z" style="fill:none;stroke:#000;stroke-width:0.75px;"/><path d="M58,51l-7,-19l-6,-1l-3,10l16,10Z" style="fill:none;stroke:#000;stroke-width:0.75px;"/><path d="M59,98l-2,-10c0,0 3.586,5.938 5.752,8.272c2.083,2.242 7.248,5.728 7.248,5.728c0,0 -3.505,-11.452 -4.672,-16.785c-1.109,-5.072 -2.328,-15.215 -2.328,-15.215l3,2l1,-5l5,1l-1,-5l2,2l0,-4l12,11l-6,-11l5,3l-2,-7l4,2l-1,-5l15,13l-7,-12l17,12l-10,-16l6,7l9,17l1,20l4,-20l-3,-12l-5,-10l20,18l-9,-15c0,0 -9.454,-11.286 -16,-14c-6.833,-2.833 -16.833,-4.5 -25,-3c-8.167,1.5 -18.5,8 -24,12c-4.044,2.941 -7.833,8.667 -9,12c-0.908,2.594 1.548,5.289 2,8c0.5,3 0.048,6.788 1,10c1.333,4.5 7,17 7,17Z" style="fill:none;stroke:#000;stroke-width:0.75px;"/></svg>